<?xml version="1.0" standalone="no"?>
<!DOCTYPE svg PUBLIC "-//W3C//DTD SVG 20010904//EN"
 "http://www.w3.org/TR/2001/REC-SVG-20010904/DTD/svg10.dtd">
<svg version="1.0" xmlns="http://www.w3.org/2000/svg"
 width="915.000000pt" height="915.000000pt" viewBox="0 0 915.000000 915.000000"
 preserveAspectRatio="xMidYMid meet">
<metadata>
Created by potrace 1.14, written by Peter Selinger 2001-2017
</metadata>
<g transform="translate(0.000000,915.000000) scale(0.100000,-0.100000)"
fill="#000000" stroke="none">
<path d="M2637 9004 c-1 -1 -27 -4 -57 -8 -112 -12 -147 -18 -236 -42 -398
-106 -726 -354 -923 -699 -34 -59 -141 -303 -141 -321 0 -14 18 1 40 33 88
131 254 281 415 374 128 74 334 153 483 185 80 16 265 18 365 3 95 -14 227
-49 227 -60 0 -5 -5 -9 -11 -9 -7 0 -54 -20 -105 -44 -95 -45 -113 -51 -199
-61 -369 -45 -739 -313 -905 -657 -18 -39 -61 -92 -131 -164 -158 -163 -208
-220 -332 -380 -337 -436 -595 -957 -741 -1494 -28 -104 -71 -299 -81 -370 -4
-24 -8 -47 -10 -50 -1 -3 -6 -32 -9 -65 -4 -33 -9 -71 -12 -85 -18 -92 -29
-293 -29 -540 0 -221 4 -318 21 -475 5 -53 40 -283 49 -324 49 -240 75 -340
129 -511 118 -367 282 -707 500 -1040 84 -128 346 -481 464 -625 147 -179 354
-385 542 -539 117 -96 117 -96 160 -126 19 -13 37 -27 40 -30 11 -12 240 -160
330 -212 119 -70 307 -164 425 -213 50 -21 104 -43 120 -50 149 -63 479 -162
634 -190 14 -2 47 -9 75 -15 28 -6 62 -12 76 -15 46 -9 244 -34 315 -40 39 -3
99 -7 135 -10 78 -7 408 -7 465 -1 22 3 74 7 115 11 121 9 184 15 205 20 11 2
43 7 70 11 171 22 485 100 687 170 120 41 175 63 288 112 547 237 1042 600
1440 1057 57 66 111 127 120 135 37 34 208 241 274 329 336 452 567 926 715
1466 28 104 73 313 86 400 4 22 8 51 10 65 3 14 7 50 10 80 4 30 8 62 10 70 2
8 7 56 10 105 3 50 8 110 11 135 6 60 6 416 -1 510 -6 94 -15 192 -20 222 -2
13 -7 50 -10 83 -10 76 -12 92 -19 135 -19 106 -38 199 -46 230 -5 19 -11 46
-14 60 -33 173 -163 555 -258 759 -108 233 -179 362 -327 591 -526 815 -1359
1445 -2294 1734 -238 74 -551 142 -741 161 -33 3 -62 8 -65 9 -18 11 -258 21
-476 21 -218 0 -367 -7 -455 -20 -26 -4 -98 -13 -160 -21 -19 -2 -46 -6 -60
-9 -14 -2 -41 -7 -60 -10 -19 -3 -56 -10 -81 -16 -79 -18 -82 -17 -139 21
-133 90 -387 192 -535 216 -22 3 -43 8 -46 10 -14 8 -323 25 -332 18z m2283
-658 c1139 -129 2126 -724 2759 -1666 355 -528 559 -1088 632 -1740 17 -146
17 -641 1 -772 -23 -187 -157 -487 -385 -862 -218 -358 -637 -804 -1053 -1119
-112 -84 -207 -143 -334 -204 -414 -199 -783 -300 -1260 -343 -117 -10 -526
-5 -630 9 -47 6 -103 13 -125 16 -104 13 -282 49 -405 82 -52 14 -96 26 -97
27 -1 0 92 1 205 1 219 0 324 7 487 31 124 18 149 23 205 35 25 6 52 12 60 14
8 2 42 10 75 19 33 10 65 18 70 20 325 85 739 285 1015 489 221 164 442 368
565 522 22 27 46 56 53 64 24 25 129 166 179 241 219 326 404 777 467 1140 3
19 8 44 10 55 14 78 17 101 35 250 11 92 11 447 1 555 -9 83 -11 100 -25 208
-9 60 -21 76 -23 29 -2 -48 -37 -228 -66 -342 -147 -577 -473 -1084 -951
-1480 -48 -40 -63 -40 -20 0 27 25 118 157 162 234 136 238 188 443 187 731
-2 271 -53 509 -175 810 -20 50 -22 74 -24 255 -1 226 -6 251 -83 400 -41 81
-172 270 -212 305 -3 3 -30 34 -60 70 -30 36 -69 81 -86 100 -17 19 -69 78
-114 130 -73 84 -207 227 -466 500 -195 206 -244 257 -280 296 -37 39 -246
261 -328 348 -109 117 -213 220 -250 250 -154 124 -318 197 -522 232 -96 17
-129 29 -119 44 2 4 71 12 152 19 81 6 166 13 188 15 78 8 462 -5 585 -18z
m-2501 -643 c-58 -60 -124 -134 -148 -165 -24 -32 -45 -58 -47 -58 -3 0 63
114 110 189 16 26 165 139 185 141 2 0 -43 -48 -100 -107z m-666 -565 c-36
-62 -101 -185 -145 -272 -57 -116 -94 -177 -137 -225 -199 -227 -443 -586
-544 -803 -30 -64 -28 -42 4 45 168 456 455 918 784 1265 54 56 99 102 101
102 2 0 -26 -51 -63 -112z m3657 -3607 c0 -51 -5 -89 -24 -177 -13 -62 -88
-185 -155 -256 -41 -42 -56 -46 -256 -74 -126 -18 -460 -25 -585 -13 -229 23
-434 64 -625 125 -144 46 -425 164 -425 178 0 2 53 -20 118 -48 173 -78 441
-159 597 -181 28 -4 61 -12 75 -18 60 -23 164 -31 417 -31 122 0 225 2 228 6
4 3 -15 70 -40 148 -26 78 -48 147 -49 153 -1 7 -12 43 -24 81 -12 37 -22 72
-22 77 0 6 37 7 93 2 139 -11 255 -6 408 18 87 13 220 47 234 60 24 23 35 8
35 -50z"/>
</g>
</svg>
