<?xml version="1.0" encoding="UTF-8" standalone="no"?>
<svg
   xmlns:dc="http://purl.org/dc/elements/1.1/"
   xmlns:cc="http://creativecommons.org/ns#"
   xmlns:rdf="http://www.w3.org/1999/02/22-rdf-syntax-ns#"
   xmlns:svg="http://www.w3.org/2000/svg"
   xmlns="http://www.w3.org/2000/svg"
   width="144.18672mm"
   height="144.24274mm"
   viewBox="0 0 144.18672 144.24274"
   version="1.1"
   id="svg8">
  <defs
     id="defs2" />
  <metadata
     id="metadata5">
    <rdf:RDF>
      <cc:Work
         rdf:about="">
        <dc:format>image/svg+xml</dc:format>
        <dc:type
           rdf:resource="http://purl.org/dc/dcmitype/StillImage" />
        <dc:title></dc:title>
      </cc:Work>
    </rdf:RDF>
  </metadata>
  <g
     id="layer1"
     transform="translate(-50.370924,-150.16269)">
    <path
       style="fill:#ffffff;fill-opacity:1;stroke-width:0.282222"
       d="m 117.5254,294.33346 c -8.18641,-0.81484 -13.53084,-1.94838 -19.675465,-4.17312 -18.016555,-6.5231 -33.026145,-20.28962 -40.899711,-37.51246 -4.6405,-10.15075 -6.5793,-19.10845 -6.5793,-30.39789 0,-6.16468 0.26761,-9.0949 1.301625,-14.25221 5.711675,-28.48789 28.051625,-50.82784 56.539511,-56.53952 5.11446,-1.02542 8.08629,-1.29557 14.25223,-1.29557 6.16594,0 9.13776,0.27015 14.25222,1.29557 28.48642,5.71138 50.82813,28.0531 56.53951,56.53952 1.03402,5.15731 1.30163,8.08753 1.30163,14.25221 0,6.16469 -0.26761,9.09491 -1.30163,14.25222 -4.03866,20.1435 -16.3283,37.42405 -34.08542,47.92776 -8.3196,4.92121 -16.99292,7.94969 -26.82853,9.36776 -2.87338,0.41427 -12.5293,0.7634 -14.81667,0.53573 z M 99.322062,253.27397 c 0.948668,-0.42765 4.036628,-3.3343 12.204478,-11.48785 l 10.93447,-10.91534 11.07886,11.03325 c 9.3685,9.32994 11.2853,11.11012 12.4161,11.53113 4.68783,1.74534 9.43883,-3.00566 7.69349,-7.69348 -0.42102,-1.13079 -2.201,-3.04741 -11.5295,-12.41447 l -11.03162,-11.07722 11.03162,-11.07722 c 9.3285,-9.36705 11.10848,-11.28367 11.5295,-12.41446 1.74534,-4.68782 -3.00566,-9.43882 -7.69349,-7.69348 -1.13079,0.42101 -3.04741,2.201 -12.41446,11.52949 l -11.07722,11.03162 -11.07723,-11.03162 c -9.36705,-9.32849 -11.28367,-11.10848 -12.414462,-11.52949 -4.687824,-1.74534 -9.438823,3.00566 -7.693482,7.69348 0.421013,1.1308 2.201192,3.0476 11.531124,12.4161 l 11.03326,11.07886 -10.89959,10.93447 c -5.994775,6.01396 -11.128933,11.37897 -11.409242,11.92225 -0.319673,0.61957 -0.514965,1.62679 -0.523906,2.70202 -0.01961,2.36044 1.065124,4.1444 3.197329,5.25828 1.813746,0.94751 3.329977,1.0079 5.113971,0.20368 z"
       id="path847" />
  </g>
</svg>
