<?xml version="1.0" encoding="UTF-8" standalone="no"?>
<svg
   xmlns:dc="http://purl.org/dc/elements/1.1/"
   xmlns:cc="http://creativecommons.org/ns#"
   xmlns:rdf="http://www.w3.org/1999/02/22-rdf-syntax-ns#"
   xmlns:svg="http://www.w3.org/2000/svg"
   xmlns="http://www.w3.org/2000/svg"
   width="139.72876mm"
   height="140.11212mm"
   viewBox="0 0 139.72876 140.11212"
   version="1.1"
   id="svg8">
  <defs
     id="defs2" />
  <metadata
     id="metadata5">
    <rdf:RDF>
      <cc:Work
         rdf:about="">
        <dc:format>image/svg+xml</dc:format>
        <dc:type
           rdf:resource="http://purl.org/dc/dcmitype/StillImage" />
        <dc:title></dc:title>
      </cc:Work>
    </rdf:RDF>
  </metadata>
  <g
     id="layer1"
     transform="translate(-30.089757,-42.654144)">
    <path
       style="fill:#ffffff;fill-opacity:1;stroke:none;stroke-width:0.273118"
       d="m 95.749186,42.957722 c -5.5555,0.72943 -10.98154,1.22216 -16.3871,2.89536 -16.96583,5.25151 -31.781131,16.93835 -40.459218,32.49411 -16.3458,29.300398 -9.486828,67.359418 16.697928,88.637788 8.35742,6.79136 17.99604,11.29426 28.4043,13.88342 7.44793,1.85311 15.59806,2.36985 23.215054,1.459 33.99722,-4.06618 61.02309,-32.0791 62.53343,-66.56301 1.43742,-32.828538 -21.13553,-62.879908 -52.97429,-70.839628 -6.60728,-1.65184 -14.21744,-2.86153 -21.030104,-1.96704 m 4.369894,22.90799 c 14.02587,-0.24979 36.03495,13.85745 29.48202,31.87287 -3.38885,9.316608 -13.14655,14.855448 -19.62518,21.849458 -4.95601,5.35039 -2.77052,16.60832 -12.588034,15.81546 -8.35823,-0.67515 -7.2958,-11.9746 -4.95081,-17.45417 3.76439,-8.79686 12.734144,-12.9895 18.424014,-20.210748 3.58878,-4.55479 3.90614,-10.44923 -0.36762,-14.74429 -1.64744,-1.65564 -3.48143,-2.80356 -5.73138,-3.43774 -7.030894,-1.98147 -13.787294,0.78549 -17.135994,7.2573 -2.85245,5.51289 -4.44363,14.753578 -12.90702,12.34795 -8.633646,-3.555944 -3.452024,-13.02376 -0.227864,-18.63552 5.681641,-8.989097 15.014923,-15.246987 25.627868,-14.66057 m -2.731194,75.387438 c 11.738634,-1.92248 15.346254,16.22732 3.550544,18.17055 -3.549174,0.58475 -7.467054,-0.47413 -9.658014,-3.51202 -3.94082,-5.46428 -0.43098,-13.58764 6.10747,-14.65853 z"
       id="path849" />
    <path
       style="fill:#000000;stroke-width:0.273118"
       id="path847"
       d="" />
  </g>
</svg>
