<?xml version="1.0" encoding="UTF-8" standalone="no"?>
<svg
   xmlns:dc="http://purl.org/dc/elements/1.1/"
   xmlns:cc="http://creativecommons.org/ns#"
   xmlns:rdf="http://www.w3.org/1999/02/22-rdf-syntax-ns#"
   xmlns:svg="http://www.w3.org/2000/svg"
   xmlns="http://www.w3.org/2000/svg"
   width="144.5325mm"
   height="144.23779mm"
   viewBox="0 0 144.5325 144.23779"
   version="1.1"
   id="svg855">
  <defs
     id="defs849" />
  <metadata
     id="metadata852">
    <rdf:RDF>
      <cc:Work
         rdf:about="">
        <dc:format>image/svg+xml</dc:format>
        <dc:type
           rdf:resource="http://purl.org/dc/dcmitype/StillImage" />
        <dc:title></dc:title>
      </cc:Work>
    </rdf:RDF>
  </metadata>
  <g
     id="layer1"
     transform="translate(-18.476397,-2.1369701)">
    <path
       style="fill:#ffffff;fill-opacity:1;stroke-width:0.282222"
       d="M 84.711778,146.2129 C 70.258888,144.80679 57.503221,139.78734 46.155557,131.04072 42.563687,128.27216 35.88328,121.4454 33.104462,117.7037 24.697825,106.38408 20.038237,94.243516 18.752359,80.309246 17.383467,65.475416 21.149165,49.593886 29.116965,36.597346 33.148717,30.021027 40.373029,21.899307 46.155557,17.442224 56.309167,9.6159734 67.675291,4.7451914 80.320584,2.8013174 c 5.765114,-0.886232 15.025404,-0.885727 20.795166,0.0011 8.0241,1.233372 14.09058,3.125203 21.34854,6.657537 6.82322,3.3207596 12.88525,7.5804616 18.37008,12.9084226 1.56633,1.52152 2.96263,2.7664 3.10289,2.7664 0.14026,0 4.47847,-4.222041 9.64047,-9.382311 l 9.38544,-9.3823086 V 30.286917 54.203666 h -23.91675 -23.91675 l 9.44875,-9.45192 9.44876,-9.45191 -2.25367,-2.27532 C 118.18566,19.306113 98.201608,13.367465 78.719845,17.258582 c -7.81843,1.561584 -16.457195,5.542535 -23.424443,10.794525 -2.927034,2.20643 -8.585123,7.872949 -10.832256,10.848379 -5.83706,7.72886 -9.807248,16.93641 -11.327849,26.27122 -0.77694,4.76955 -0.77694,13.36792 0,18.13748 1.520601,9.33481 5.490789,18.542354 11.327849,26.271214 2.247133,2.97544 7.905222,8.64195 10.832256,10.84838 8.520839,6.42311 18.20585,10.36427 28.638146,11.65382 3.07981,0.3807 10.48902,0.38011 13.56147,-10e-4 20.124602,-2.49685 37.401042,-15.0657 46.040972,-33.495464 3.18751,-6.79924 5.29401,-15.58865 5.31056,-22.15839 l 0.006,-2.18718 h 7.07817 7.07818 l -0.17719,2.89277 c -0.3918,6.3968 -1.09125,10.81787 -2.5584,16.17108 -3.34488,12.204484 -9.53844,22.818394 -18.60733,31.887404 -11.17817,11.17831 -25.0086,18.14862 -40.63093,20.47732 -4.212492,0.62792 -12.585972,0.9064 -16.322782,0.54285 z"
       id="path1432" />
  </g>
</svg>
